<svg width="139.95" height="43.25" viewBox="0 0 139.95 43.25" xmlns="http://www.w3.org/2000/svg"><g id="svgGroup" stroke-linecap="round" fill-rule="evenodd" font-size="9pt" stroke="#ffffff" stroke-width="0mm" fill="#000" style="stroke:#ffffff;stroke-width:0mm;fill:#000"><path d="M 56.35 7.75 L 66.5 7.75 L 66.5 11.65 L 64.6 11.65 L 61.2 11.15 A 7.741 7.741 0 0 1 62.005 12.437 A 9.653 9.653 0 0 1 62.375 13.275 Q 62.85 14.5 62.85 15.8 A 8.917 8.917 0 0 1 62.603 17.933 A 7.593 7.593 0 0 1 62.15 19.25 Q 61.45 20.8 60.125 21.9 Q 58.8 23 56.975 23.575 A 12.253 12.253 0 0 1 54.658 24.055 A 15.734 15.734 0 0 1 52.9 24.15 Q 51.801 24.15 50.948 24.027 A 8.461 8.461 0 0 1 50.5 23.95 Q 49.609 24.336 49.247 24.934 A 1.735 1.735 0 0 0 49 25.85 Q 49 27.488 51.462 27.548 A 7.822 7.822 0 0 0 51.65 27.55 L 57.25 27.55 Q 60.19 27.55 62.221 28.53 A 7.414 7.414 0 0 1 63.45 29.275 A 5.54 5.54 0 0 1 65.547 32.603 A 8.794 8.794 0 0 1 65.75 34.55 Q 65.75 36.5 64.85 38.1 Q 63.95 39.7 62.275 40.85 A 11.534 11.534 0 0 1 60.113 42.004 A 15.23 15.23 0 0 1 58.25 42.625 A 18.2 18.2 0 0 1 55.432 43.13 A 23.791 23.791 0 0 1 53 43.25 Q 47.65 43.25 44.55 41.375 A 6.722 6.722 0 0 1 42.631 39.687 Q 41.45 38.122 41.45 35.9 Q 41.45 34.15 42.575 32.925 Q 43.7 31.7 45.6 31.05 A 5.572 5.572 0 0 1 44.478 30.017 A 6.63 6.63 0 0 1 44.175 29.625 A 3.181 3.181 0 0 1 43.687 28.547 Q 43.55 28.006 43.55 27.35 Q 43.55 25.75 44.525 24.575 A 6.424 6.424 0 0 1 46.205 23.157 A 8.107 8.107 0 0 1 47.1 22.7 A 8.221 8.221 0 0 1 44.922 21.052 A 10.229 10.229 0 0 1 44.175 20.175 Q 42.974 18.597 42.904 16.11 A 11.064 11.064 0 0 1 42.9 15.8 A 8.748 8.748 0 0 1 43.151 13.671 A 7.433 7.433 0 0 1 43.65 12.275 Q 44.4 10.7 45.75 9.6 A 9.503 9.503 0 0 1 48.149 8.186 A 11.28 11.28 0 0 1 48.925 7.9 A 11.959 11.959 0 0 1 51.482 7.371 A 14.814 14.814 0 0 1 52.95 7.3 A 11.527 11.527 0 0 1 53.989 7.349 A 13.961 13.961 0 0 1 54.65 7.425 A 16.844 16.844 0 0 1 55.918 7.649 A 14.565 14.565 0 0 1 56.35 7.75 Z M 86.6 24.8 L 86.6 7.75 L 92.5 7.75 L 92.5 31.5 L 88.05 31.5 L 87.35 28.75 L 87.15 28.75 Q 86.115 29.83 84.471 30.769 A 17.556 17.556 0 0 1 84.1 30.975 A 8.011 8.011 0 0 1 82.036 31.727 Q 80.82 32 79.35 32 Q 75.6 32 73.35 29.9 Q 71.1 27.8 71.1 23.6 L 71.1 7.75 L 77 7.75 L 77 23 Q 77 25.45 78.125 26.475 A 3.878 3.878 0 0 0 80.214 27.444 A 5.302 5.302 0 0 0 81 27.5 A 7.47 7.47 0 0 0 82.63 27.33 A 5.803 5.803 0 0 0 84.225 26.725 Q 85.6 25.95 86.6 24.8 Z M 20.65 13.9 L 18.55 9.85 A 23.503 23.503 0 0 1 22.438 8.152 A 21.52 21.52 0 0 1 23 7.975 A 15.953 15.953 0 0 1 26.107 7.383 A 19.824 19.824 0 0 1 27.95 7.3 A 16.132 16.132 0 0 1 29.95 7.419 A 12.399 12.399 0 0 1 31.75 7.775 A 8.076 8.076 0 0 1 33.875 8.7 A 7.314 7.314 0 0 1 34.7 9.3 A 6.585 6.585 0 0 1 36.339 11.395 A 8.036 8.036 0 0 1 36.625 12.025 Q 37.3 13.7 37.3 16.1 L 37.3 31.5 L 32.65 31.5 L 32.05 29 L 31.9 29 A 8.285 8.285 0 0 1 26.995 31.788 A 12.37 12.37 0 0 1 24.65 32 A 11.454 11.454 0 0 1 22.292 31.772 Q 20.186 31.329 18.8 30.025 Q 16.7 28.05 16.7 24.9 A 7.9 7.9 0 0 1 16.875 23.2 A 5.974 5.974 0 0 1 17.55 21.45 Q 18.4 20 19.875 19.05 A 9.876 9.876 0 0 1 21.773 18.11 A 13.085 13.085 0 0 1 23.4 17.625 A 18.403 18.403 0 0 1 26.241 17.206 A 22.519 22.519 0 0 1 27.85 17.15 L 31.35 17.15 L 31.35 15.5 A 5.198 5.198 0 0 0 31.259 14.492 Q 31.027 13.318 30.2 12.725 A 4.069 4.069 0 0 0 28.91 12.123 Q 28.362 11.97 27.712 11.922 A 8.344 8.344 0 0 0 27.1 11.9 A 9.89 9.89 0 0 0 25.329 12.067 A 12.592 12.592 0 0 0 24.125 12.35 A 12.201 12.201 0 0 0 22.685 12.868 Q 21.719 13.281 20.65 13.9 Z M 101.25 13.9 L 99.15 9.85 A 23.503 23.503 0 0 1 103.038 8.152 A 21.52 21.52 0 0 1 103.6 7.975 A 15.953 15.953 0 0 1 106.707 7.383 A 19.824 19.824 0 0 1 108.55 7.3 A 16.132 16.132 0 0 1 110.55 7.419 A 12.399 12.399 0 0 1 112.35 7.775 A 8.076 8.076 0 0 1 114.475 8.7 A 7.314 7.314 0 0 1 115.3 9.3 A 6.585 6.585 0 0 1 116.939 11.395 A 8.036 8.036 0 0 1 117.225 12.025 Q 117.9 13.7 117.9 16.1 L 117.9 31.5 L 113.25 31.5 L 112.65 29 L 112.5 29 A 8.285 8.285 0 0 1 107.595 31.788 A 12.37 12.37 0 0 1 105.25 32 A 11.454 11.454 0 0 1 102.892 31.772 Q 100.786 31.329 99.4 30.025 Q 97.3 28.05 97.3 24.9 A 7.9 7.9 0 0 1 97.475 23.2 A 5.974 5.974 0 0 1 98.15 21.45 Q 99 20 100.475 19.05 A 9.876 9.876 0 0 1 102.373 18.11 A 13.085 13.085 0 0 1 104 17.625 A 18.403 18.403 0 0 1 106.841 17.206 A 22.519 22.519 0 0 1 108.45 17.15 L 111.95 17.15 L 111.95 15.5 A 5.198 5.198 0 0 0 111.859 14.492 Q 111.627 13.318 110.8 12.725 A 4.069 4.069 0 0 0 109.51 12.123 Q 108.962 11.97 108.312 11.922 A 8.344 8.344 0 0 0 107.7 11.9 A 9.89 9.89 0 0 0 105.929 12.067 A 12.592 12.592 0 0 0 104.725 12.35 A 12.201 12.201 0 0 0 103.285 12.868 Q 102.319 13.281 101.25 13.9 Z M 5.5 0 L 11.6 0 L 11.6 25.75 Q 11.6 29.55 11.15 31.925 Q 10.7 34.3 9.2 36.15 Q 7.6 38.15 5.15 38.95 Q 2.7 39.75 0 39.75 L 0 35 Q 1.192 35 2.075 34.692 A 4.245 4.245 0 0 0 2.375 34.575 Q 3.35 34.15 4.05 33.45 Q 4.95 32.6 5.225 31.25 A 13.55 13.55 0 0 0 5.458 29.512 A 16.997 16.997 0 0 0 5.5 28.3 L 5.5 0 Z M 129.6 31.5 L 123.75 31.5 L 123.75 7.75 L 128.3 7.75 L 129.05 12.2 A 8.395 8.395 0 0 1 131.736 8.736 A 9.848 9.848 0 0 1 131.75 8.725 A 6.763 6.763 0 0 1 134.777 7.429 A 9.227 9.227 0 0 1 136.35 7.3 A 9.764 9.764 0 0 1 137.343 7.348 Q 137.831 7.398 138.257 7.5 A 5.643 5.643 0 0 1 138.45 7.55 A 11.456 11.456 0 0 1 139.083 7.745 Q 139.39 7.85 139.652 7.962 A 5.714 5.714 0 0 1 139.95 8.1 L 138.95 12.9 A 5.125 5.125 0 0 0 138.421 12.652 Q 138.05 12.502 137.6 12.375 A 5.437 5.437 0 0 0 136.892 12.229 Q 136.543 12.18 136.145 12.161 A 10.607 10.607 0 0 0 135.65 12.15 A 6.118 6.118 0 0 0 133.133 12.659 A 5.917 5.917 0 0 0 131.35 13.9 A 5.274 5.274 0 0 0 130.154 15.824 Q 129.6 17.313 129.6 19.45 L 129.6 31.5 Z M 55.7 32.05 L 48.95 32.05 Q 48 32.45 47.45 33.2 A 2.799 2.799 0 0 0 46.955 34.389 A 3.813 3.813 0 0 0 46.9 35.05 Q 46.9 36.674 48.17 37.63 A 4.082 4.082 0 0 0 48.375 37.775 A 4.584 4.584 0 0 0 49.512 38.3 Q 50.923 38.75 53.2 38.75 A 16.868 16.868 0 0 0 54.476 38.704 Q 55.134 38.654 55.703 38.55 A 8.65 8.65 0 0 0 56.275 38.425 Q 57.355 38.15 58.112 37.713 A 4.775 4.775 0 0 0 58.375 37.55 A 4.387 4.387 0 0 0 58.991 37.059 Q 59.358 36.705 59.575 36.3 A 3.087 3.087 0 0 0 59.932 35.176 A 2.95 2.95 0 0 0 59.95 34.85 Q 59.95 33.25 58.85 32.65 A 4.074 4.074 0 0 0 57.981 32.308 Q 57.105 32.066 55.869 32.051 A 13.607 13.607 0 0 0 55.7 32.05 Z M 56.516 13.376 A 3.155 3.155 0 0 0 55.85 12.475 A 3.937 3.937 0 0 0 53.656 11.451 A 5.384 5.384 0 0 0 52.9 11.4 A 5.077 5.077 0 0 0 51.561 11.568 A 3.814 3.814 0 0 0 49.9 12.5 A 3.528 3.528 0 0 0 48.955 14.106 Q 48.792 14.67 48.758 15.347 A 7.216 7.216 0 0 0 48.75 15.7 A 6.542 6.542 0 0 0 48.854 16.905 Q 49.099 18.212 49.925 18.95 A 4.084 4.084 0 0 0 52.142 19.95 A 5.536 5.536 0 0 0 52.9 20 A 5.302 5.302 0 0 0 54.186 19.852 A 3.765 3.765 0 0 0 55.875 18.95 A 3.31 3.31 0 0 0 56.767 17.494 Q 56.934 16.963 56.982 16.32 A 7.125 7.125 0 0 0 57 15.8 Q 57 14.341 56.516 13.376 Z M 31.4 25 L 31.4 20.9 L 28.7 21 A 17.559 17.559 0 0 0 27.175 21.108 Q 25.656 21.287 24.726 21.739 A 3.42 3.42 0 0 0 24.1 22.125 A 3.838 3.838 0 0 0 23.334 22.917 A 2.848 2.848 0 0 0 22.8 24.6 Q 22.8 26.45 23.9 27.1 A 4.668 4.668 0 0 0 25.726 27.707 A 5.92 5.92 0 0 0 26.45 27.75 Q 27.9 27.75 29.225 27.025 Q 30.55 26.3 31.4 25 Z M 112 25 L 112 20.9 L 109.3 21 A 17.559 17.559 0 0 0 107.775 21.108 Q 106.256 21.287 105.326 21.739 A 3.42 3.42 0 0 0 104.7 22.125 A 3.838 3.838 0 0 0 103.934 22.917 A 2.848 2.848 0 0 0 103.4 24.6 Q 103.4 26.45 104.5 27.1 A 4.668 4.668 0 0 0 106.326 27.707 A 5.92 5.92 0 0 0 107.05 27.75 Q 108.5 27.75 109.825 27.025 Q 111.15 26.3 112 25 Z"/></g></svg>
