<svg xmlns="http://www.w3.org/2000/svg" width="304.2" height="45.761" viewBox="0 0 304.2 45.761"><g id="svgGroup" stroke-linecap="round" fill-rule="evenodd" font-size="9pt" stroke="#ffffff" stroke-width="0.25mm" fill="#ffffff" style="stroke:#ffffff;stroke-width:0.25mm;fill:#ffffff"><path d="M 19.11 45.11 L 14.755 45.11 L 0 0 L 6.11 0 L 17.81 36.79 L 16.055 36.79 L 27.56 0 L 31.98 0 L 43.485 36.79 L 41.795 36.79 L 53.495 0 L 59.54 0 L 44.85 45.11 L 40.495 45.11 L 28.925 8.385 L 30.615 8.385 L 19.11 45.11 Z M 114.53 45.11 L 101.205 45.11 L 101.205 39.78 L 114.855 39.78 A 10.595 10.595 0 0 0 117.414 39.489 A 7.209 7.209 0 0 0 120.965 37.473 Q 123.175 35.165 123.175 31.915 Q 123.175 29.705 122.2 27.918 Q 121.225 26.13 119.373 25.09 A 8.061 8.061 0 0 0 116.569 24.157 A 10.466 10.466 0 0 0 115.05 24.05 L 101.205 24.05 L 101.205 18.72 L 114.14 18.72 A 9.922 9.922 0 0 0 116.304 18.498 Q 118.079 18.101 119.308 16.998 Q 121.225 15.275 121.225 12.025 A 8.369 8.369 0 0 0 120.998 10.014 A 5.532 5.532 0 0 0 119.21 7.053 Q 117.244 5.372 114.041 5.331 A 12.577 12.577 0 0 0 113.88 5.33 L 101.205 5.33 L 101.205 0 L 114.01 0 A 20.415 20.415 0 0 1 117.119 0.224 Q 119.539 0.597 121.388 1.593 A 12.247 12.247 0 0 1 124.161 3.602 A 10.413 10.413 0 0 1 125.872 5.785 Q 127.4 8.385 127.4 11.505 A 11.268 11.268 0 0 1 126.781 15.288 A 10.132 10.132 0 0 1 125.417 17.875 A 11.485 11.485 0 0 1 122.41 20.705 A 16.083 16.083 0 0 1 119.6 22.165 L 120.12 20.215 A 16.725 16.725 0 0 1 123.781 22.028 A 13.143 13.143 0 0 1 126.913 24.928 A 11.666 11.666 0 0 1 129.335 31.703 A 14.646 14.646 0 0 1 129.35 32.37 A 12.48 12.48 0 0 1 128.558 36.851 A 11.681 11.681 0 0 1 127.595 38.805 A 12.236 12.236 0 0 1 123.735 42.702 A 15.077 15.077 0 0 1 122.558 43.388 A 14.313 14.313 0 0 1 118.784 44.706 Q 116.828 45.11 114.53 45.11 Z M 89.375 31.85 L 63.31 31.85 L 63.31 26.975 L 86.255 26.975 L 84.11 28.86 Q 84.11 26.059 83.219 24.017 A 8.64 8.64 0 0 0 83.005 23.563 Q 81.9 21.385 79.885 20.183 Q 77.87 18.98 75.01 18.98 A 11.698 11.698 0 0 0 72.199 19.305 A 9.517 9.517 0 0 0 69.745 20.28 Q 67.47 21.58 66.235 23.92 A 10.432 10.432 0 0 0 65.204 26.997 A 14.076 14.076 0 0 0 65 29.445 A 13.788 13.788 0 0 0 65.286 32.314 A 10.664 10.664 0 0 0 66.3 35.133 Q 67.6 37.57 70.005 38.903 A 10.63 10.63 0 0 0 73.923 40.141 A 13.395 13.395 0 0 0 75.53 40.235 A 12.966 12.966 0 0 0 78.688 39.862 A 11.324 11.324 0 0 0 80.307 39.325 Q 82.485 38.415 84.045 36.595 L 87.815 40.43 Q 85.605 43.03 82.388 44.395 Q 79.17 45.76 75.53 45.76 A 17.347 17.347 0 0 1 70.117 44.935 A 15.663 15.663 0 0 1 67.21 43.648 Q 63.505 41.535 61.36 37.895 Q 59.215 34.255 59.215 29.64 A 16.835 16.835 0 0 1 60.04 24.308 A 15.23 15.23 0 0 1 61.328 21.45 Q 63.44 17.81 67.048 15.698 A 15.52 15.52 0 0 1 74.307 13.604 A 18.541 18.541 0 0 1 75.14 13.585 A 16.015 16.015 0 0 1 79.406 14.134 A 13.411 13.411 0 0 1 82.712 15.535 Q 85.995 17.485 87.848 20.93 Q 89.7 24.375 89.7 28.73 Q 89.7 29.38 89.635 30.128 Q 89.579 30.77 89.427 31.581 A 22.626 22.626 0 0 1 89.375 31.85 Z M 242.645 40.105 L 246.415 36.335 A 11.51 11.51 0 0 0 248.605 38.427 A 10.003 10.003 0 0 0 250.315 39.423 A 11.232 11.232 0 0 0 253.882 40.363 A 13.787 13.787 0 0 0 255.255 40.43 Q 257.985 40.43 259.48 39.488 Q 260.938 38.569 260.974 36.938 A 3.759 3.759 0 0 0 260.975 36.855 Q 260.975 35.165 259.772 34.223 Q 258.57 33.28 256.685 32.663 Q 254.8 32.045 252.687 31.428 Q 250.575 30.81 248.69 29.835 Q 246.805 28.86 245.603 27.17 Q 244.555 25.698 244.42 23.388 A 12.04 12.04 0 0 1 244.4 22.685 A 9.624 9.624 0 0 1 244.72 20.153 A 7.842 7.842 0 0 1 245.765 17.843 A 8.655 8.655 0 0 1 248.975 14.981 A 10.579 10.579 0 0 1 249.568 14.69 Q 251.815 13.672 254.918 13.592 A 20.758 20.758 0 0 1 255.45 13.585 Q 259.09 13.585 261.918 14.853 Q 264.745 16.12 266.565 18.655 L 262.795 22.425 Q 261.495 20.735 259.578 19.825 Q 257.66 18.915 255.255 18.915 Q 253.656 18.915 252.536 19.264 A 4.521 4.521 0 0 0 251.387 19.793 A 3.102 3.102 0 0 0 250.55 20.582 Q 250.088 21.233 250.057 22.105 A 3.558 3.558 0 0 0 250.055 22.23 A 3.309 3.309 0 0 0 250.219 23.299 A 2.687 2.687 0 0 0 251.225 24.635 A 7.886 7.886 0 0 0 252.345 25.302 Q 252.929 25.591 253.628 25.84 A 15.749 15.749 0 0 0 254.313 26.065 A 538.986 538.986 0 0 0 257.28 26.961 A 606.203 606.203 0 0 0 258.31 27.268 Q 260.39 27.885 262.275 28.925 Q 264.16 29.965 265.363 31.72 Q 266.565 33.475 266.565 36.335 A 9.896 9.896 0 0 1 266.094 39.46 A 8.085 8.085 0 0 1 263.478 43.225 Q 260.39 45.76 255.19 45.76 A 17.664 17.664 0 0 1 251.315 45.346 A 15.924 15.924 0 0 1 250.283 45.078 Q 247.975 44.395 246.025 43.128 Q 244.075 41.86 242.645 40.105 Z M 175.175 32.175 L 175.175 14.235 L 181.025 14.235 L 181.025 31.915 Q 181.025 34.406 181.872 36.237 A 7.768 7.768 0 0 0 181.902 36.303 Q 182.78 38.155 184.47 39.13 A 7.214 7.214 0 0 0 187.005 40 A 9.415 9.415 0 0 0 188.435 40.105 Q 191.88 40.105 193.83 37.928 Q 195.615 35.934 195.766 32.552 A 14.284 14.284 0 0 0 195.78 31.915 L 195.78 14.235 L 201.63 14.235 L 201.63 32.175 Q 201.63 36.205 199.94 39.26 Q 198.25 42.315 195.293 44.038 A 12.625 12.625 0 0 1 190.554 45.624 A 16.033 16.033 0 0 1 188.435 45.76 A 14.603 14.603 0 0 1 184.272 45.185 A 12.704 12.704 0 0 1 181.577 44.038 Q 178.555 42.315 176.865 39.26 A 13.435 13.435 0 0 1 175.34 34.599 A 17.257 17.257 0 0 1 175.175 32.175 Z M 154.375 27.56 L 141.7 27.56 L 141.7 22.23 L 153.985 22.23 A 10.575 10.575 0 0 0 156.523 21.937 A 8.755 8.755 0 0 0 158.503 21.19 Q 160.485 20.15 161.623 18.265 A 7.803 7.803 0 0 0 162.626 15.483 A 10.388 10.388 0 0 0 162.76 13.78 A 9.988 9.988 0 0 0 162.526 11.571 A 7.635 7.635 0 0 0 161.623 9.295 Q 160.485 7.41 158.503 6.37 A 9.094 9.094 0 0 0 155.293 5.404 A 11.377 11.377 0 0 0 153.985 5.33 L 141.7 5.33 L 141.7 0 L 154.375 0 A 17.552 17.552 0 0 1 158.663 0.506 A 14.676 14.676 0 0 1 161.818 1.69 Q 165.1 3.38 167.018 6.468 A 12.621 12.621 0 0 1 168.748 11.251 A 16.519 16.519 0 0 1 168.935 13.78 A 15.207 15.207 0 0 1 168.47 17.615 A 12.279 12.279 0 0 1 167.017 21.028 Q 165.1 24.115 161.818 25.838 A 15.068 15.068 0 0 1 156.4 27.453 A 18.635 18.635 0 0 1 154.375 27.56 Z M 103.22 45.11 L 97.11 45.11 L 97.11 0 L 103.22 0 L 103.22 45.11 Z M 143.715 45.11 L 137.605 45.11 L 137.605 0 L 143.715 0 L 143.715 45.11 Z M 216.645 45.11 L 210.535 45.11 L 210.535 0 L 216.645 0 L 216.645 45.11 Z M 280.28 45.11 L 274.17 45.11 L 274.17 0 L 280.28 0 L 280.28 45.11 Z M 304.2 45.11 L 278.33 45.11 L 278.33 39.52 L 304.2 39.52 L 304.2 45.11 Z M 303.875 5.59 L 278.33 5.59 L 278.33 0 L 303.875 0 L 303.875 5.59 Z M 238.875 45.11 L 214.695 45.11 L 214.695 39.52 L 238.875 39.52 L 238.875 45.11 Z M 302.055 24.7 L 278.33 24.7 L 278.33 19.37 L 302.055 19.37 L 302.055 24.7 Z" vector-effect="non-scaling-stroke"/></g></svg>
